<?xml version="1.0" encoding="UTF-8" standalone="no"?>
<!DOCTYPE svg PUBLIC "-//W3C//DTD SVG 1.1//EN" "http://www.w3.org/Graphics/SVG/1.1/DTD/svg11.dtd">
<svg width="100%" height="100%" viewBox="0 0 1746 1080" version="1.1" xmlns="http://www.w3.org/2000/svg" xmlns:xlink="http://www.w3.org/1999/xlink" xml:space="preserve" xmlns:serif="http://www.serif.com/" style="fill-rule:evenodd;clip-rule:evenodd;stroke-linejoin:round;stroke-miterlimit:2;">
    <g transform="matrix(51.8044,0,0,51.8044,-40148.1,-13084)">
        <path d="M774.995,261.413L774.995,252.682L777.573,252.682L779.653,256.11C779.833,256.407 780.001,256.704 780.157,257.001C780.313,257.298 780.465,257.625 780.611,257.982C780.757,258.34 780.907,258.757 781.059,259.233L780.854,259.233C780.835,258.917 780.81,258.55 780.781,258.134C780.752,257.718 780.725,257.308 780.702,256.904C780.678,256.5 780.667,256.159 780.667,255.882L780.667,252.682L783.104,252.682L783.104,261.413L780.526,261.413L778.587,258.225C778.368,257.862 778.175,257.523 778.009,257.209C777.843,256.894 777.683,256.561 777.529,256.21C777.375,255.858 777.198,255.452 776.999,254.991L777.245,254.991C777.276,255.401 777.306,255.809 777.336,256.216C777.365,256.622 777.388,256.999 777.406,257.346C777.423,257.694 777.432,257.987 777.432,258.225L777.432,261.413L774.995,261.413Z" style="fill:white;fill-rule:nonzero;"/>
        <path d="M784.229,261.413L784.229,252.682L790.522,252.682L790.522,254.592L786.596,254.592L786.596,256.069L790.194,256.069L790.194,257.932L786.596,257.932L786.596,259.503L790.499,259.503L790.499,261.413L784.229,261.413Z" style="fill:white;fill-rule:nonzero;"/>
        <path d="M795.673,261.53C794.88,261.53 794.162,261.358 793.519,261.014C792.877,260.671 792.368,260.166 791.993,259.5C791.618,258.834 791.43,258.018 791.43,257.053C791.43,256.081 791.618,255.26 791.993,254.592C792.368,253.925 792.877,253.42 793.519,253.078C794.162,252.736 794.88,252.565 795.673,252.565C796.465,252.565 797.182,252.736 797.823,253.078C798.464,253.42 798.972,253.925 799.349,254.592C799.726,255.26 799.915,256.081 799.915,257.053C799.915,258.022 799.726,258.84 799.349,259.506C798.972,260.172 798.464,260.675 797.823,261.017C797.182,261.359 796.465,261.53 795.673,261.53ZM795.673,259.467C796.067,259.467 796.398,259.375 796.666,259.189C796.933,259.004 797.135,258.731 797.272,258.372C797.409,258.012 797.477,257.573 797.477,257.053C797.477,256.53 797.409,256.088 797.272,255.726C797.135,255.365 796.933,255.092 796.666,254.906C796.398,254.72 796.067,254.628 795.673,254.628C795.282,254.628 794.953,254.72 794.685,254.906C794.418,255.092 794.215,255.365 794.076,255.726C793.937,256.088 793.868,256.53 793.868,257.053C793.868,257.573 793.937,258.012 794.076,258.372C794.215,258.731 794.418,259.004 794.685,259.189C794.953,259.375 795.282,259.467 795.673,259.467Z" style="fill:white;fill-rule:nonzero;"/>
        <path d="M774.995,273.413L774.995,264.682L778.733,264.682L779.518,267.413C779.585,267.647 779.661,267.958 779.747,268.344C779.833,268.731 779.918,269.146 780.002,269.59C780.086,270.033 780.163,270.459 780.233,270.867C780.303,271.275 780.358,271.62 780.397,271.901L779.958,271.901C779.997,271.62 780.05,271.275 780.119,270.867C780.187,270.459 780.263,270.033 780.347,269.59C780.431,269.146 780.515,268.731 780.599,268.344C780.683,267.958 780.758,267.647 780.825,267.413L781.598,264.682L785.342,264.682L785.342,273.413L782.952,273.413L782.952,270.038C782.952,269.839 782.957,269.574 782.966,269.244C782.976,268.914 782.987,268.551 782.999,268.157C783.01,267.762 783.021,267.366 783.031,266.967C783.041,266.569 783.046,266.202 783.046,265.866L783.18,265.866C783.11,266.237 783.03,266.623 782.94,267.023C782.85,267.424 782.758,267.814 782.665,268.195C782.571,268.576 782.481,268.925 782.395,269.244C782.309,269.562 782.235,269.827 782.173,270.038L781.159,273.413L779.19,273.413L778.159,270.038C778.096,269.827 778.021,269.562 777.933,269.244C777.845,268.925 777.753,268.576 777.655,268.195C777.557,267.814 777.463,267.424 777.371,267.023C777.279,266.623 777.196,266.237 777.122,265.866L777.292,265.866C777.292,266.202 777.297,266.569 777.306,266.967C777.316,267.366 777.327,267.762 777.339,268.157C777.35,268.551 777.361,268.914 777.371,269.244C777.381,269.574 777.385,269.839 777.385,270.038L777.385,273.413L774.995,273.413Z" style="fill:white;fill-rule:nonzero;"/>
        <path d="M786.174,273.413L789.005,264.682L792.239,264.682L795.174,273.413L792.491,273.413L791.477,270.026C791.258,269.292 791.053,268.529 790.862,267.738C790.671,266.947 790.489,266.161 790.317,265.38L790.856,265.38C790.692,266.161 790.526,266.947 790.358,267.738C790.19,268.529 790.001,269.292 789.79,270.026L788.823,273.413L786.174,273.413ZM788.272,271.737L788.272,269.967L793.077,269.967L793.077,271.737L788.272,271.737Z" style="fill:white;fill-rule:nonzero;"/>
        <path d="M796.007,273.413L796.007,264.682L798.374,264.682L798.374,271.503L801.901,271.503L801.901,273.413L796.007,273.413Z" style="fill:white;fill-rule:nonzero;"/>
        <path d="M802.792,273.413L802.792,264.682L805.159,264.682L805.159,271.503L808.686,271.503L808.686,273.413L802.792,273.413Z" style="fill:white;fill-rule:nonzero;"/>
    </g>
</svg>
